<mxfile host="app.diagrams.net" modified="2024-04-13T13:08:55.000Z" agent="Mozilla/5.0 (Windows NT 10.0; Win64; x64) AppleWebKit/537.36 (KHTML, like Gecko) Chrome/123.0.0.0 Safari/537.36" version="24.2.5" etag="J-1ihd0dMUvXRNClyCHq" type="github">
  <diagram name="Page-1" id="GUS93Kt-7J0p3VMwFpqP">
    <mxGraphModel>
      <root>
        <mxCell id="0" />
        <mxCell id="1" parent="0" />
      </root>
    </mxGraphModel>
  </diagram>
</mxfile>
